<svg xmlns="http://www.w3.org/2000/svg" xmlns:xlink="http://www.w3.org/1999/xlink" xmlns:serif="http://www.serif.com/" viewBox="0 0 32 40" version="1.1" xml:space="preserve" style="" x="0px" y="0px" fill-rule="evenodd" clip-rule="evenodd" stroke-linejoin="round" stroke-miterlimit="2"><g transform="matrix(1,0,0,1,-432,-432)"><path d="M453,462L460,462C461.105,462 462,461.105 462,460L462,453C462,452.448 461.552,452 461,452C460.448,452 460,452.448 460,453L460,460C457.854,460 453,460 453,460C452.448,460 452,460.448 452,461C452,461.552 452.448,462 453,462ZM436,460L436,453C436,452.448 435.552,452 435,452C434.448,452 434,452.448 434,453L434,460C434,461.105 434.895,462 436,462L443,462C443.552,462 444,461.552 444,461C444,460.448 443.552,460 443,460L436,460ZM438.86,458.349C440.242,454.643 443.815,452 448,452C452.185,452 455.758,454.643 457.14,458.349C457.333,458.866 457.909,459.13 458.426,458.937C458.943,458.744 459.207,458.168 459.014,457.651C457.349,453.184 453.043,450 448,450C442.957,450 438.651,453.184 436.986,457.651C436.793,458.168 437.057,458.744 437.574,458.937C438.091,459.13 438.667,458.866 438.86,458.349ZM448,437C444.689,437 442,439.689 442,443C442,446.311 444.689,449 448,449C451.311,449 454,446.311 454,443C454,439.689 451.311,437 448,437ZM448,439C450.208,439 452,440.792 452,443C452,445.208 450.208,447 448,447C445.792,447 444,445.208 444,443C444,440.792 445.792,439 448,439ZM436,436L443,436C443.552,436 444,435.552 444,435C444,434.448 443.552,434 443,434L436,434C434.895,434 434,434.895 434,436L434,443C434,443.552 434.448,444 435,444C435.552,444 436,443.552 436,443L436,436ZM460,436L460,443C460,443.552 460.448,444 461,444C461.552,444 462,443.552 462,443L462,436C462,434.895 461.105,434 460,434L453,434C452.448,434 452,434.448 452,435C452,435.552 452.448,436 453,436L460,436Z"/></g><text x="0" y="47" fill="#000000" font-size="5px" font-weight="bold" font-family="'Helvetica Neue', Helvetica, Arial-Unicode, Arial, Sans-serif">Created by Yudhi Restu Pebriyanto</text><text x="0" y="52" fill="#000000" font-size="5px" font-weight="bold" font-family="'Helvetica Neue', Helvetica, Arial-Unicode, Arial, Sans-serif">from the Noun Project</text></svg>